<?xml version="1.0" encoding="UTF-8" standalone="no"?>
<!-- Uploaded to: SVG Repo, www.svgrepo.com, Generator: SVG Repo Mixer Tools -->

<svg
   height="100"
   width="86.488106"
   version="1.1"
   id="_x32_"
   viewBox="0 0 55.352388 64"
   xml:space="preserve"
   xmlns="http://www.w3.org/2000/svg"
   xmlns:svg="http://www.w3.org/2000/svg"><defs
   id="defs1" />
<style
   type="text/css"
   id="style1">
	.st0{fill:#000000;}
</style>
<g
   id="g1"
   transform="translate(-34.591915,5.4628226e-5)">
	<path
   class="st0"
   d="m 88.17792,55.003696 c -1.3585,-0.849124 -7.317499,-5.763999 -7.317499,-5.763999 0,0 -0.50925,-3.565125 -1.189,-8.487749 -0.67875,-4.922625 -2.376,-7.298749 -2.376,-7.298749 9.353749,-8.665124 3.565125,-18.333123 2.03725,-22.916873 -1.30725,-3.9217495 -0.134,-7.1461242 2.56425,-7.3077491 2.209624,-0.132 3.715874,3.0637496 3.207499,4.2527495 -0.50925,1.1881249 -0.8315,2.3682498 0.187125,2.8766246 1.018625,0.50925 2.358375,-0.161625 3.03725,-3.7257495 0.67975,-3.5649996 -3.470625,-8.4552491 -9.165624,-5.94124937 -4.969,2.19287477 -3.88725,8.81874907 -1.17025,15.26837387 2.715875,6.450749 -0.742875,15.695998 -9.676374,14.599623 -7.461249,-0.916125 -17.313498,1.697375 -17.313498,1.697375 0,0 -1.3585,-3.7345 -6.960875,-3.055875 -7.080124,0.858 -4.582749,4.413375 -4.582749,4.413375 l 0.339,3.565124 c -0.50825,0.509375 -2.20575,1.018625 -2.03625,1.527875 0.1695,0.50925 1.188,2.546625 2.03625,2.8865 0.849125,0.338875 2.72775,0.781125 5.092999,1.017625 1.697375,0.169375 4.6055,1.52 4.6055,1.52 0,0 -3.054875,7.384499 -3.56425,8.147874 -0.72,1.07975 -3.312999,4.171999 -6.790374,6.534374 -1.1585,0.789 -2.843125,0.595 -3.39475,0.849125 -2.206749,1.0185 -0.6965,2.045125 -0.01762,2.045125 0.67875,0 3.92275,0.332 5.10975,-0.0079 1.189,-0.339875 8.465124,-7.544999 8.465124,-7.544999 l 3.436,-6.13525 2.612624,5.023125 -1.018625,7.892749 c 0,0 1.782125,2.801625 3.054875,2.5465 1.27375,-0.254125 -0.254125,-2.291375 -0.254125,-3.309 0,-1.0185 1.527875,-8.402999 1.527875,-8.402999 l -2.278625,-6.2665 c 2.5495,-0.17525 6.712624,-0.44925 9.981249,-0.609749 l -2.36625,3.662624 c -0.284625,0.441375 -0.444375,0.953625 -0.460125,1.478625 l -0.31525,10.399999 c 0,0 -1.697374,1.3585 -2.375999,1.528 -0.67975,0.169375 0.339875,1.86675 0.339875,1.86675 l 2.035999,0.1705 2.5465,-1.3575 1.3585,-10.524999 5.404875,-5.271375 c 1.072749,2.06775 2.291374,4.972875 2.291374,4.972875 0.391125,0.74975 1.016625,1.349625 1.783125,1.708125 l 10.040374,4.700999 c 0,0 -0.508375,2.716 -1.527875,2.716 -1.017625,0 -1.187125,1.3585 -1.017625,1.86675 0.169375,0.51025 1.188,0.51025 2.20675,0.51025 1.0185,0 1.0185,-0.170375 1.188,-0.67875 0.1695,-0.510375 1.528,-2.716 2.20675,-4.414375 0.679625,-1.69725 -0.169625,-2.376 -1.527125,-3.22425 z"
   id="path1"
   style="stroke-width:0.125" />
</g>
</svg>
